<?xml version="1.0" standalone="no"?>
<!DOCTYPE svg PUBLIC "-//W3C//DTD SVG 20010904//EN"
 "http://www.w3.org/TR/2001/REC-SVG-20010904/DTD/svg10.dtd">
<svg version="1.0" xmlns="http://www.w3.org/2000/svg"
 width="1152.000000pt" height="896.000000pt" viewBox="0 0 1152.000000 896.000000"
 preserveAspectRatio="xMidYMid meet">

<g transform="translate(0.000000,896.000000) scale(0.100000,-0.100000)"
fill="#000000" stroke="none">
<path d="M5379 7864 c-535 -96 -919 -596 -860 -1119 26 -234 119 -442 271
-608 111 -122 313 -245 462 -284 l68 -17 0 -1548 0 -1548 -507 0 -508 1 -40
66 c-104 171 -332 346 -549 419 -230 79 -536 72 -766 -17 -187 -72 -391 -234
-495 -393 l-49 -76 -203 0 -203 0 0 -520 0 -520 183 0 184 0 54 -92 c74 -127
237 -291 363 -365 309 -182 653 -211 983 -83 220 85 425 263 543 471 l36 64
1406 3 1406 2 48 -87 c55 -98 177 -233 283 -314 86 -65 265 -153 364 -178 278
-72 541 -45 790 80 183 93 356 258 452 432 l37 67 195 0 195 0 -5 518 c-4 284
-6 518 -7 520 0 1 -92 2 -205 2 l-204 0 -42 63 c-63 93 -231 255 -323 312 -43
27 -115 63 -159 81 -44 18 -85 38 -92 46 -7 7 -227 333 -490 723 -593 880
-1054 1563 -1364 2020 l-237 350 -367 3 -367 2 0 770 0 770 -102 -1 c-57 0
-137 -7 -179 -15z m1268 -3799 c104 -154 312 -461 462 -683 l272 -403 -47 -52
c-26 -29 -67 -82 -92 -119 l-45 -68 -378 0 -379 0 0 812 c0 447 4 808 9 803 4
-6 93 -136 198 -290z"/>
</g>
</svg>
